<svg width="116" height="56" viewBox="0 0 116 56" fill="none" xmlns="http://www.w3.org/2000/svg">
<rect width="116" height="56" rx="28" fill="#EA4335"/>
<g clip-path="url(#clip0)">
<path d="M34.9773 26.7393C36.0492 27.26 37.0598 27.9133 37.999 28.6891L36.9067 29.7814C36.3146 29.3016 35.6715 28.8729 34.9875 28.485V26.7393H34.9773ZM21.5125 26.7393V28.4747C20.849 28.8525 20.2058 29.2812 19.6035 29.7712L18.5113 28.6789C19.4402 27.9133 20.4508 27.2702 21.5125 26.7393ZM28.25 23.146C23.6154 23.146 19.4096 24.9631 16.296 27.9133C16.1123 28.097 16 28.3522 16 28.6381C16 28.9239 16.1123 29.1791 16.296 29.3527L18.8277 31.8843C19.0115 32.0681 19.2667 32.1804 19.5525 32.1804C19.8281 32.1804 20.0833 32.0783 20.2671 31.8945C21.0735 31.1493 21.9821 30.5062 22.9825 30.006C23.3194 29.8427 23.5542 29.4854 23.5542 29.0872V25.9227C25.0344 25.4429 26.6167 25.1877 28.25 25.1877C29.8833 25.1877 31.4656 25.4429 32.9356 25.9329V29.0975C32.9356 29.5058 33.1704 29.8529 33.5073 30.0162C34.5077 30.5164 35.4265 31.1493 36.2329 31.9047C36.4167 32.0783 36.6719 32.1906 36.9475 32.1906C37.2333 32.1906 37.4885 32.0783 37.6723 31.8945L40.204 29.3629C40.3877 29.1791 40.5 28.9239 40.5 28.6381C40.5 28.3522 40.3877 28.097 40.204 27.9133C37.0904 24.9631 32.8846 23.146 28.25 23.146Z" fill="white"/>
</g>
<path d="M62.7559 27.6523H56.916V32.0273H63.7422V34H54.4453V19.7812H63.6738V21.7734H56.916V25.6992H62.7559V27.6523ZM68.3266 23.4336L68.3949 24.6543C69.1762 23.7103 70.2016 23.2383 71.4711 23.2383C73.6716 23.2383 74.7914 24.498 74.8305 27.0176V34H72.4574V27.1543C72.4574 26.4837 72.3109 25.9889 72.018 25.6699C71.7315 25.3444 71.2595 25.1816 70.602 25.1816C69.6449 25.1816 68.932 25.6146 68.4633 26.4805V34H66.0902V23.4336H68.3266ZM77.4129 28.6387C77.4129 27.0111 77.7905 25.7057 78.5457 24.7227C79.3009 23.7331 80.3133 23.2383 81.5828 23.2383C82.7026 23.2383 83.6076 23.6289 84.2977 24.4102V19H86.6707V34H84.5223L84.4051 32.9062C83.6954 33.7656 82.7482 34.1953 81.5633 34.1953C80.3263 34.1953 79.3237 33.6973 78.5555 32.7012C77.7938 31.7051 77.4129 30.3509 77.4129 28.6387ZM79.7859 28.8438C79.7859 29.918 79.991 30.7578 80.4012 31.3633C80.8178 31.9622 81.407 32.2617 82.1688 32.2617C83.1388 32.2617 83.8484 31.8288 84.2977 30.9629V26.4512C83.8615 25.6048 83.1583 25.1816 82.1883 25.1816C81.4201 25.1816 80.8276 25.4876 80.4109 26.0996C79.9943 26.7051 79.7859 27.6198 79.7859 28.8438Z" fill="white"/>
<defs>
<clipPath id="clip0">
<rect width="24.5" height="24.5" fill="white" transform="translate(16 16)"/>
</clipPath>
</defs>
</svg>
