<svg width="56" height="56" viewBox="0 0 56 56" fill="none" xmlns="http://www.w3.org/2000/svg">
<circle cx="28" cy="28" r="28" fill="#3C4043"/>
<path d="M26.9792 22.8957H29.0208V24.9373H26.9792V22.8957ZM26.9792 26.979H29.0208V33.104H26.9792V26.979ZM28 17.7915C22.365 17.7915 17.7917 22.3648 17.7917 27.9998C17.7917 33.6348 22.365 38.2082 28 38.2082C33.635 38.2082 38.2083 33.6348 38.2083 27.9998C38.2083 22.3648 33.635 17.7915 28 17.7915ZM28 36.1665C23.4981 36.1665 19.8333 32.5017 19.8333 27.9998C19.8333 23.498 23.4981 19.8332 28 19.8332C32.5019 19.8332 36.1667 23.498 36.1667 27.9998C36.1667 32.5017 32.5019 36.1665 28 36.1665Z" fill="white"/>
</svg>
