<svg width="56" height="56" viewBox="0 0 56 56" fill="none" xmlns="http://www.w3.org/2000/svg">
<circle cx="28" cy="28" r="28" fill="white"/>
<path d="M26.9792 22.8957H29.0209V24.9373H26.9792V22.8957ZM26.9792 26.979H29.0209V33.104H26.9792V26.979ZM28.0001 17.7915C22.3651 17.7915 17.7917 22.3648 17.7917 27.9998C17.7917 33.6348 22.3651 38.2082 28.0001 38.2082C33.6351 38.2082 38.2084 33.6348 38.2084 27.9998C38.2084 22.3648 33.6351 17.7915 28.0001 17.7915ZM28.0001 36.1665C23.4982 36.1665 19.8334 32.5017 19.8334 27.9998C19.8334 23.498 23.4982 19.8332 28.0001 19.8332C32.502 19.8332 36.1667 23.498 36.1667 27.9998C36.1667 32.5017 32.502 36.1665 28.0001 36.1665Z" fill="#3C4043"/>
</svg>
