<svg width="56" height="56" viewBox="0 0 56 56" fill="none" xmlns="http://www.w3.org/2000/svg">
<circle cx="28" cy="28" r="28" fill="#EA4335"/>
<path d="M26.775 20.7519C26.775 20.0782 27.3263 19.5269 28 19.5269C28.6738 19.5269 29.225 20.0782 29.225 20.7519L29.2148 24.7434L31.0625 26.5707V20.854C31.0625 19.1594 29.6946 17.7915 28 17.7915C26.4279 17.7915 25.1519 18.9757 24.9783 20.4967L26.775 22.2934V20.7519ZM35.1458 26.979H33.4104C33.4104 27.5711 33.3083 28.1325 33.1348 28.6532L34.4312 29.9496C34.8804 29.0513 35.1458 28.0407 35.1458 26.979ZM20.2519 18.6694L18.8125 20.1088L24.9375 26.2338V26.979C24.9375 28.6736 26.3054 30.0415 28 30.0415C28.2348 30.0415 28.4492 30.0109 28.6635 29.9598L30.3581 31.6544C29.6333 31.9913 28.8269 32.1853 28 32.1853C25.1825 32.1853 22.5896 30.0415 22.5896 26.979H20.8542C20.8542 30.46 23.6308 33.3388 26.9792 33.839V37.1873H29.0208V33.839C29.9498 33.7063 30.8277 33.3796 31.624 32.9203L35.9115 37.2078L37.3508 35.7684L20.2519 18.6694Z" fill="white"/>
</svg>
