<svg width="56" height="56" viewBox="0 0 56 56" fill="none" xmlns="http://www.w3.org/2000/svg">
<circle cx="28" cy="28" r="28" fill="#3C4043"/>
<g clip-path="url(#clip0)">
<path d="M40.25 15.75H15.75V40.25H40.25V15.75Z" fill="#3C4043"/>
<path d="M28 30.0417C29.6946 30.0417 31.0625 28.6738 31.0625 26.9792V20.8542C31.0625 19.1597 29.6946 17.7917 28 17.7917C26.3054 17.7917 24.9375 19.1597 24.9375 20.8542V26.9792C24.9375 28.6738 26.3054 30.0417 28 30.0417Z" fill="white"/>
<path d="M33.1042 26.9792C33.1042 29.7967 30.8176 32.0834 28.0001 32.0834C25.1826 32.0834 22.8959 29.7967 22.8959 26.9792H20.8542C20.8542 30.5828 23.5186 33.5432 26.9792 34.0434V37.1876H29.0209V34.0434C32.4815 33.5432 35.1459 30.5828 35.1459 26.9792H33.1042Z" fill="white"/>
</g>
<defs>
<clipPath id="clip0">
<rect width="24.5" height="24.5" fill="white" transform="translate(15.75 15.75)"/>
</clipPath>
</defs>
</svg>
