<svg width="56" height="56" viewBox="0 0 56 56" fill="none" xmlns="http://www.w3.org/2000/svg">
<circle cx="28" cy="28" r="28" fill="#3C4043"/>
<path d="M24.9375 29.7863C22.5488 29.7863 17.7917 30.9807 17.7917 33.3592V35.1457H32.0833V33.3592C32.0833 30.9807 27.3263 29.7863 24.9375 29.7863ZM20.1804 33.104C21.0379 32.5119 23.1102 31.828 24.9375 31.828C26.7648 31.828 28.8371 32.5119 29.6946 33.104H20.1804ZM24.9375 27.9998C26.9077 27.9998 28.5104 26.3971 28.5104 24.4269C28.5104 22.4567 26.9077 20.854 24.9375 20.854C22.9673 20.854 21.3646 22.4567 21.3646 24.4269C21.3646 26.3971 22.9673 27.9998 24.9375 27.9998ZM24.9375 22.8957C25.7848 22.8957 26.4688 23.5796 26.4688 24.4269C26.4688 25.2742 25.7848 25.9582 24.9375 25.9582C24.0902 25.9582 23.4063 25.2742 23.4063 24.4269C23.4063 23.5796 24.0902 22.8957 24.9375 22.8957ZM32.1242 29.8475C33.3083 30.705 34.125 31.8484 34.125 33.3592V35.1457H38.2083V33.3592C38.2083 31.2971 34.6354 30.1232 32.1242 29.8475ZM31.0625 27.9998C33.0327 27.9998 34.6354 26.3971 34.6354 24.4269C34.6354 22.4567 33.0327 20.854 31.0625 20.854C30.5113 20.854 30.0008 20.9867 29.5313 21.2113C30.1744 22.1198 30.5521 23.2325 30.5521 24.4269C30.5521 25.6213 30.1744 26.734 29.5313 27.6425C30.0008 27.8671 30.5113 27.9998 31.0625 27.9998Z" fill="white"/>
</svg>
