<svg width="56" height="56" viewBox="0 0 56 56" fill="none" xmlns="http://www.w3.org/2000/svg">
<circle cx="28" cy="28" r="28" fill="white"/>
<path d="M24.9376 29.7863C22.5488 29.7863 17.7917 30.9807 17.7917 33.3592V35.1457H32.0834V33.3592C32.0834 30.9807 27.3263 29.7863 24.9376 29.7863ZM20.1805 33.104C21.038 32.5119 23.1103 31.828 24.9376 31.828C26.7649 31.828 28.8372 32.5119 29.6947 33.104H20.1805ZM24.9376 27.9998C26.9078 27.9998 28.5105 26.3971 28.5105 24.4269C28.5105 22.4567 26.9078 20.854 24.9376 20.854C22.9674 20.854 21.3647 22.4567 21.3647 24.4269C21.3647 26.3971 22.9674 27.9998 24.9376 27.9998ZM24.9376 22.8957C25.7849 22.8957 26.4688 23.5796 26.4688 24.4269C26.4688 25.2742 25.7849 25.9582 24.9376 25.9582C24.0903 25.9582 23.4063 25.2742 23.4063 24.4269C23.4063 23.5796 24.0903 22.8957 24.9376 22.8957ZM32.1242 29.8475C33.3084 30.705 34.1251 31.8484 34.1251 33.3592V35.1457H38.2084V33.3592C38.2084 31.2971 34.6355 30.1232 32.1242 29.8475ZM31.0626 27.9998C33.0328 27.9998 34.6355 26.3971 34.6355 24.4269C34.6355 22.4567 33.0328 20.854 31.0626 20.854C30.5113 20.854 30.0009 20.9867 29.5313 21.2113C30.1745 22.1198 30.5522 23.2325 30.5522 24.4269C30.5522 25.6213 30.1745 26.734 29.5313 27.6425C30.0009 27.8671 30.5113 27.9998 31.0626 27.9998Z" fill="#3C4043"/>
</svg>
