<svg width="56" height="56" viewBox="0 0 56 56" fill="none" xmlns="http://www.w3.org/2000/svg">
<circle cx="28" cy="28" r="28" fill="#3C4043"/>
<path d="M28 17.7915C22.365 17.7915 17.7917 22.3648 17.7917 27.9998C17.7917 33.6348 22.365 38.2082 28 38.2082C33.635 38.2082 38.2083 33.6348 38.2083 27.9998C38.2083 22.3648 33.635 17.7915 28 17.7915ZM28 36.1665C23.4879 36.1665 19.8333 32.5119 19.8333 27.9998C19.8333 23.4878 23.4879 19.8332 28 19.8332C32.5121 19.8332 36.1667 23.4878 36.1667 27.9998C36.1667 32.5119 32.5121 36.1665 28 36.1665Z" fill="white"/>
<path d="M28 33.1043C30.819 33.1043 33.1042 30.8191 33.1042 28.0002C33.1042 25.1812 30.819 22.896 28 22.896C25.181 22.896 22.8958 25.1812 22.8958 28.0002C22.8958 30.8191 25.181 33.1043 28 33.1043Z" fill="white"/>
</svg>
