<svg width="56" height="56" viewBox="0 0 56 56" fill="none" xmlns="http://www.w3.org/2000/svg">
<circle cx="28" cy="28" r="28" fill="#3C4043"/>
<g clip-path="url(#clip0)">
<path d="M36.1667 34.125C37.2896 34.125 38.1981 33.2062 38.1981 32.0833L38.2083 21.875C38.2083 20.7419 37.2896 19.8333 36.1667 19.8333H19.8333C18.7002 19.8333 17.7917 20.7419 17.7917 21.875V32.0833C17.7917 33.2062 18.7002 34.125 19.8333 34.125H15.75V36.1666H40.25V34.125H36.1667ZM19.8333 32.0833V21.875H36.1667V32.0935L19.8333 32.0833ZM29.0208 25.0702C25.0498 25.6214 23.4675 28.3369 22.8958 31.0625C24.3148 29.1535 26.1829 28.2858 29.0208 28.2858V30.5214L33.1042 26.7035L29.0208 22.8958V25.0702Z" fill="white"/>
</g>
<defs>
<clipPath id="clip0">
<rect width="24.5" height="24.5" fill="white" transform="translate(15.75 15.75)"/>
</clipPath>
</defs>
</svg>
