<svg width="56" height="56" viewBox="0 0 56 56" fill="none" xmlns="http://www.w3.org/2000/svg">
<circle cx="28" cy="28" r="28" fill="white"/>
<g clip-path="url(#clip0)">
<path d="M36.1667 34.1252C37.2896 34.1252 38.1981 33.2064 38.1981 32.0835L38.2083 21.8752C38.2083 20.742 37.2896 19.8335 36.1667 19.8335H19.8333C18.7002 19.8335 17.7917 20.742 17.7917 21.8752V32.0835C17.7917 33.2064 18.7002 34.1252 19.8333 34.1252H15.75V36.1668H40.25V34.1252H36.1667ZM19.8333 32.0835V21.8752H36.1667V32.0937L19.8333 32.0835ZM29.0208 25.0704C25.0498 25.6216 23.4675 28.337 22.8958 31.0627C24.3148 29.1537 26.1829 28.286 29.0208 28.286V30.5216L33.1042 26.7037L29.0208 22.896V25.0704Z" fill="#3C4043"/>
</g>
<defs>
<clipPath id="clip0">
<rect width="24.5" height="24.5" fill="white" transform="translate(15.75 15.75)"/>
</clipPath>
</defs>
</svg>
