<svg width="56" height="56" viewBox="0 0 56 56" fill="none" xmlns="http://www.w3.org/2000/svg">
<circle cx="28" cy="28" r="28" fill="#EA4335"/>
<path d="M25.5092 23.9166L23.4676 21.8749L19.2311 17.6487L17.7917 19.0881L20.5786 21.8749H19.8334C19.272 21.8749 18.8126 22.3343 18.8126 22.8958V33.1041C18.8126 33.6656 19.272 34.1249 19.8334 34.1249H32.0834C32.2978 34.1249 32.4815 34.0433 32.6449 33.9412L35.8911 37.1874L37.3305 35.7481L28.2859 26.7035L25.5092 23.9166ZM20.8542 32.0833V23.9166H22.6203L30.787 32.0833H20.8542ZM31.0626 23.9166V26.581L37.1876 32.706V22.3853L33.1042 26.4687V22.8958C33.1042 22.3343 32.6449 21.8749 32.0834 21.8749H26.3565L28.3982 23.9166H31.0626Z" fill="white"/>
</svg>
